<?xml version="1.0" encoding="UTF-8"?>
<svg id="Capa_1" xmlns="http://www.w3.org/2000/svg" version="1.1" viewBox="0 0 110 110">
  <!-- Generator: Adobe Illustrator 30.1.0, SVG Export Plug-In . SVG Version: 2.1.1 Build 136)  -->
  <defs>
    <style>
      .st0 {
        fill: #2a5e44;
      }
    </style>
  </defs>
  <polygon class="st0" points="58.23 50.15 64.18 50.15 75.49 72.96 84.03 56.13 77.99 56.13 75.4 61.56 72.43 55.47 75.4 50.15 92.56 50.15 75.4 84.59 58.23 50.15"/>
  <path class="st0" d="M53.02,52.16c-.09.38-.31.78-.64,1.01-.19.13-.35.27-.5.43-.03.03-.05.06-.08.09-.21.29-.49.52-.84.7-.02,0-.05.02-.07.03-.02.02-.03.04-.05.05,0,0-.01.01-.02.02-.24.27-.47.55-.76.79-.02.01-.04.03-.06.04-.08.2-.19.38-.36.54-.08.11-.18.2-.29.29l14.62,28.58,2.78-5.54-13.75-27.01Z"/>
  <path class="st0" d="M98.89,50.15l-23.49,45.95-5.75-10.74-6.23,10.74-19.65-39.77c-1.25-.9-2.27-1.93-3.5-2.9-.6-.48-1.53-1.37-1.95-1.45-.42-.08-1.02.08-1.44.13-.32.05-.65.09-.97.12.17-.02.34-.03.51-.05-.18.2-.39.36-.61.48l28.08,55.62,5.75-11.63,6.14,11.63,28.77-58.13h-5.66Z"/>
  <polygon points="55.43 41.22 47.47 51.55 33.01 38.98 38.65 32.69 75.4 32.69 48.57 67.37 38.28 58.39 29.71 67.37 5.45 46.39 5.45 27.87 26.03 9.24 75.4 9.24 62.05 24.5 34.48 24.39 23.46 34.71 22.97 40.55 32.65 49.08 29.09 53.23 16.72 42.57 16.97 32.58 31.42 18.89 57.88 18.89 61.56 15.3 28.97 14.85 12.31 30.56 12.43 44.14 29.22 58.84 37.91 49.53 47.59 58.39 63.88 37.52 44.04 37.52 42.57 39.2 44.28 41.45 55.43 41.22"/>
</svg>